<?xml version="1.0" encoding="UTF-8"?>
<svg fill="rgba(255,255,255,.4)"  width="284.65" height="220.26" enable-background="new 0 0 284.652 220.261" viewBox="0 0 284.652 220.261" xmlns="http://www.w3.org/2000/svg">
 <path d="m108.4,13.766c.063,1.946-1.64.857-2.409.401 .37-1.457 1.19-.244 2.41-.401z" fill="rgba(255,255,255,.6)" fill-rule="evenodd"/>
 <path d="m124.06 37.855c3.972 3.122 6.029 8.157 8.833 12.446-1.503 1.843-2.196 4.495-4.015 6.022-3.542-3.284-5.229-8.422-8.431-12.045 1.01-2.33 2.39-4.3 3.61-6.423" fill="rgba(255,255,255,.6)" fill-rule="evenodd"/>
 <path d="m48.58,82.821h.803c6.009,3.577-.708,15.249 4.818,18.87 1.926-2.491 1.528-7.304 2.409-10.84 4.622,1.839 7.636,24.43 5.621,28.104 2.641,3.349 9.033,9.115 9.505,14.295 .853,9.34-.466,15.999-.672,25.452-2.74-1.408-3.88-4.417-6.022-6.424 .203-2.742 2.037-3.852 2.409-6.424-.112-.843-1.072.582-1.606-.401 1.609-6.735-2.205-9.974-2.007-16.461-.79.95-.458,3.021-1.205,4.015-5.103-4.115-1.387-15.97-5.621-19.672 .07-.006-7.22,15.815-9.636,15.658-1.524-9.146 9.941-13.033 4.417-21.68-.882-1.053-1.334,1.245-2.409,0-3.28-8.81 2.729-16.405-.804-24.489" fill="rgba(255,255,255,.6)" fill-rule="evenodd"/>
 <path d="m204.76,103.7c1.733.091-.725,1.958 0,3.613 .018,1.455 2.85.094 2.409,2.007-.76-.445-1.897-.512-2.811-.803-.16-1.9.12-3.35.4-4.82" fill-rule="evenodd"/>
 <path d="m183.88 106.51h2.81c1.385 2.763 2.088 6.209 2.811 9.635-1.81-3.27-4.43-5.74-5.62-9.63"  fill-rule="evenodd"/>
 <path d="m189.1,107.31c1.452.823 1.354,3.197 1.606,5.219-1.11-1.17-1.59-2.97-1.61-5.22z" fill-rule="evenodd"/>
 <path d="m191.51,107.71c3.137-.059 4.77,1.387 7.628,1.606 .741,1.936.272,5.081.401,7.628-1.518-.582-.771,1.103-2.007.803-.426-.504-3.223-7.093-3.212-7.227-1.534-.33-.473,1.936-2.007,1.606-.53-1.21-.27-3.2-.8-4.42" fill-rule="evenodd"/>
 <path d="m201.54,114.14c-.337-1.135-.466-2.478-.803-3.613 2.13-1.55 3.54,3.32.8,3.61z" fill-rule="evenodd"/>
 <path d="m204.76,111.73c.839-.17 1.063.275 1.606.401 .187,1.257-.349,1.792-1.606,1.606-.76-.77.24-.73 0-2.01" fill-rule="evenodd"/>
 <path d="m75.479,121.36c-2.416-.796-3.244-3.179-4.015-5.621 2.494-1.01 5.031,3.13 4.015,5.62z" fill="rgba(255,255,255,.6)" fill-rule="evenodd"/>
 <path d="m219.61,118.96c-.516.688-.83,1.579-2.007,1.606 .08-1.14.7-1.72 2.01-1.61z" fill-rule="evenodd"/>
 <path d="m33.725 120.56c5.56 2.988 5.066 8.366 6.424 13.249 1.983 7.133 9.996 10.061 12.446 16.862-12.194-1.54-16.887-20.44-18.87-30.11" fill="rgba(255,255,255,.6)" fill-rule="evenodd"/>
 <path d="m173.84,128.59c-.463,7.571-12.148,5.844-17.264,3.212 4.131.137 8.61.958 12.045-.402-2.285-2.934-9.041-1.397-11.242-4.416 1.319.125 3.288.928 4.417,0-.356-.982-2.242-.435-2.008-2.008 1.951.92 2.285-.835 4.818,0-.435-2.025-2.992-1.053-4.416-4.015 5.72-.97 8.98,5.14 13.65,7.63" fill="rgba(255,255,255,.6)" fill-rule="evenodd"/>
 <path d="m224.03,122.17c-.321,1.686-2.459,1.556-3.613,2.409 .73-1.28 2.21-1.81 3.61-2.41z" fill-rule="evenodd"/>
 <path d="m226.84,124.58c-.86,1.683-2.288,2.798-4.817,2.811 1.29-1.26 2.26-2.83 4.82-2.81z" fill-rule="evenodd"/>
 <path d="m146.14,124.98c2.683.127 5.719-.098 6.424,2.008-2.68-.13-4.88-.75-6.42-2.01z" fill="rgba(255,255,255,.6)" fill-rule="evenodd"/>
 <path d="m234.47,131.8c-3.229.652-5.592,2.169-9.636,2.007 2.34-1.29 7.93-6.3 9.64-2.01z" fill-rule="evenodd"/>
 <path d="m238.88,135.42c-3.323,1.053-7.698.622-10.84.803 2.74-1.25 9.3-5.6 10.84-.8z" fill-rule="evenodd"/>
 <path d="m192.71,133.41c1.176.563 1.235,2.245 1.205,4.015 .778-.56.599-2.078 1.204-2.811 .902.169.011,2.13.803,2.409 .864-.341 1.42-.989 1.205-2.409 .163,2.078 3.063,1.478 4.416-.401-.139,2.538-1.736,3.617-2.409,5.621 .495,1.22 1.38-.435 2.409,0-.406,3.227-.972,4.838-1.204,8.03-.999.062-1.243-.631-2.008-.803 .081,1.525 1.688,1.523 1.606,3.212-.799-.405-1.715-.694-2.007-1.606-1.177.34.24,1.292 0,2.007-.578-.225-.979-.626-1.205-1.205-.742.061-.246,1.359-.803,1.606-.942-.128-.898-1.243-1.606-1.606-.649.555-.988,1.42-2.409,1.205 .694-1.984-.82-1.353 0-3.212-1.29-.085-.978,1.432-1.606,2.007-1.176.105-1.234-.908-2.409-.803 .055-.748.264-1.342.803-1.606 .067-.871-1.424-.182-2.008-.402 .499-.839 1.168-1.509 2.008-2.007-1.294-1.394.132-2.228-.402-3.212 1.08-1.311 2.244.673 3.212.803 .621-1.305-1.813-2.995-2.409-4.417 .601-1.139 2.211-1.268 1.606-3.613 .705.365.734,1.407 1.205,2.007 .63-.57.85-1.56.81-2.8m.81,11.24c1.293-.179 2.332-.613 2.008-2.409-1.83-1.54-3.8,1.38-2.01,2.41z" fill="rgba(255,255,255,.6)" fill-rule="evenodd"/>
 <path d="m247.31,143.85c-8.043,1.266-15.604.137-23.688-1.205 .062-3.531 14.36-5.486 16.461-6.022 2.97,1.86 5.3,4.34 7.23,7.23" fill-rule="evenodd"/>
 <path d="m21.279,150.67c1.373-3.713 5.706-4.465 8.431-6.825-.492-1.516-2.828-1.188-4.818-1.205 5.729-8.16 8.684,10.55-3.613,8.03" fill="" fill-rule="evenodd"/>
 <path d="m195.52,142.24c.324,1.796-.714,2.23-2.008,2.409-1.78-1.03.19-3.95 2.01-2.41z" fill-rule="evenodd"/>
 <path d="m249.72,146.26c-1.853,1.289-6.933,1.278-9.234.803 2.03-.93 7.18-2.52 9.23-.8z" fill-rule="evenodd"/>
 <path d="m140.52,164.72c.001,1.474-1.406,1.539-2.007,2.409-1.873-.67-3.474-1.612-4.818-2.811 1.03-5.91 5.6-4.12 6.83.4m-5.22-.4c1.075.234 2.044-1.651 1.204-2.007-.12.95-1.39.75-1.2,2.01zm2.81,1.61c.171-.766 1.147-.727.803-2.007h-1.205c-.11.94-.85,1.73.41,2.01" fill="rgba(255,255,255,.6)" fill-rule="evenodd"/>
 <path d="m136.5,162.32c.84.356-.129,2.242-1.204,2.007-.19-1.27 1.08-1.07 1.2-2.01z" fill-rule="evenodd"/>
 <path d="m137.71,163.92h1.205c.344,1.281-.632,1.242-.803,2.007-1.27-.28-.53-1.07-.41-2.01" fill-rule="evenodd"/>
 <path d="m216.8,178.38c.996,1.012 2.08,1.935 2.409,3.614-1.06-.95-2.22-1.79-2.41-3.61z" fill-rule="evenodd"/>
 <path d="m116.83.116h3.613c.147.683-.313.757-.803.803-.067.871 1.424.182 2.008.402-.493,2.095-.891,1.314-.402,3.613-1.29-.83-3.35-3.639-4.42-4.818" fill="rgba(255,255,255,.6)" fill-rule="evenodd"/>
 <path fill="rgba(255,255,255,.2)" d="m66.245.116h36.133c5.3,0 10.955-.491 16.112.55 1.745.352.984,3.128 2.757,4.268-.489-2.299-.091-1.518.402-3.613-.583-.22-2.075.469-2.008-.402 .908-.084 4.266-1.291 4.015,2.008 .695-1.073 1.176-.067 1.606-1.606 1.913,2.173 2.182,6.972 2.409,9.635-.762.756-2.34-1.414-3.212.402 7.411,1.033 13.039,6.929 14.454,15.256-6.589-4.527-6.351-9.895-14.454-13.249-.417,1.514 2.442,1.805.803,3.212-.222,1.775-1.637-1.345-3.613-.401-1.175,2.796 2.593,2.739 1.606,4.015-.431,2.678-1.651-.641-3.614,0-1.833,2.23 2.661,2.312 1.606,3.613-.335,1.887-2.57-1.138-4.015.401 .45,4.047 4.819,7.434 7.628,10.439-3.308.477-4.716,6.231-6.826,9.234 1.084,2.931 3.082,4.948 4.417,7.628-1.95-.731-3.39-5.44-6.022-6.825-2.653-.245-4.116.702-6.825.401-.336-1.938-.831-3.719-1.606-5.219-1.882,1.195-2.724,3.432-3.613,5.621 7.543,3.833 12.831,9.92 15.658,18.468-4.26-6.312-7.405-13.74-15.256-16.461-1.349,1.375 2.085,1.375 1.605,3.212-1.32,1.353-2.694-1.353-4.015,0-1.666,1.987 2.65,2.015 1.205,3.613-.2,2.079-2.476-1.283-3.613.402-.917,2.275 2.868,1.923 1.606,3.211-.397,2.276-2.55-1.208-3.614.402-.749,2.107 2.949,1.842 1.606,3.212-.397,2.276-2.55-1.209-3.613.401-1.51,1.903 2.117,1.444 1.606,3.613-1.457,1.232-2.915-1.445-4.015.401-.479,1.838 2.955,1.837 1.606,3.212-.538,2.417-2.55-1.209-3.613.402-1.4,2.172 1.612,1.693 1.606,3.613-1.586,1.361-3.043-1.316-4.015.401-.511,2.169 3.116,1.71 1.606,3.613-1.072,1.168-2.241-1.467-3.613,0 4.708,5.596 12.138,8.472 16.06,14.855-8.295-4.301-13.189-11.537-22.885-13.65-1.74,1.726-.295,5.818.803,7.227-.945.657-1.82-2.179-4.015-1.606-.569,7.764 8.943,10.778 4.818,20.074-2.739-1.41-3.992-4.306-7.628-4.818-.824,10.435 9.521,13.64 9.636,22.483-5.28-.263-11.187-14.147-15.658-16.863-1.729,4.502 9.138,17.408 10.789,22.535 1.635,5.08 1.687,9.593 2.388,14.932 .906,6.898-4.941,8.267-5.95,14.727 2.737-2.616 4.985-5.722 9.636-6.424-.686,1.991-1.687,3.666-2.811,5.219 .823,1.236 2.774-.986 3.212.803 2.254-.155 1.455-3.362 4.015-3.211 .791,1.083.239,3.508.402,5.219 1.865.789 2.119-3.133 4.818-2.811 .721,4.795-.613,9.341-3.212,12.848-11.715-2.939-22.801-6.86-33.182-13.076-8.582-5.138-23.755-6.932-28.246,5.447 .995,1.414 4.131.687 6.022,1.205 .315,1.653-.617,2.06-.402,3.613 5.44-1.601 12.037.237 17.264-1.205 1.452.957 2.656,2.162 3.613,3.613 4.252-.042 8.5.049 12.747.272 6.495.425 11.363,2.707 17.413,4.307 5.545,1.466 10.788-2.274 15.467-4.584 7.444-3.674 14.86-2.116 22.626-4.01-1.681,4.076-6.374,5.582-8.496,9.301-3.766,6.599 6.739,10.933 11.058,12.462 10.983,3.891 30.388,11.395 6.876,12.806-5.181.311-11.044,11.925-18.271,13.207-16.503,2.929-25.166-12.552-38.944-17.665-12.284.566-51.917,15.551-60.223-1.606-.471,1.962-.146,4.601.401,7.227 3.285,5.44 30.749,2.544 36.427,2.125 14.402-1.063 26.447-10.081 37.446,3.496-12.453,6.278-27.662,4.643-41.078,6.798-7.368,1.184-13.321,6.059-20.349,7.254-9.887,1.682-19.805-1.263-29.71,0v-131.28c6.192-5.513 46.672-24.461 40.148-34.929 9.713-3.07 15.506-10.303-.598-.612 1.393-2.852-1.271,10.62.28,7.851 3.493.775-6.476-6.219-4.417-9.149 1.827-2.6 2.719-5.697 4.451-8.351 2.527-3.871 5.329-.788 8.58-3.483 4.3-3.564 3.481-11.517 4.412-16.421 1.747-9.313 11.184-14.303 13.369-23.24m46.175,10.037c-2.494.83-2.092-.702-4.015-1.205 .017.553-.189.882-.402,1.205 1.96.483 3.34,1.243 4.42,0m-6.43,4.014c.77.456 2.472,1.544 2.409-.401-1.22.157-2.04-1.056-2.41.401zm-56.608,93.143c1.075,1.245 1.527-1.053 2.409,0 5.525,8.647-5.941,12.535-4.417,21.68 2.416.157 9.706-15.664 9.636-15.658 4.234,3.702.518,15.557 5.621,19.672 .746-.994.415-3.064 1.205-4.015-.198,6.487 3.617,9.726 2.007,16.461 .534.983 1.494-.441 1.606.401-.372,2.572-2.206,3.682-2.409,6.424 2.142,2.007 3.282,5.016 6.022,6.424 .206-9.453 1.525-16.112.672-25.452-.472-5.181-6.864-10.947-9.505-14.295 2.015-3.674-.999-26.265-5.621-28.104-.881,3.536-.483,8.35-2.409,10.84-5.526-3.621 1.191-15.293-4.818-18.87h-.803c3.535,8.095-2.474,15.69.804,24.5m22.082,8.43c.771,2.441 1.599,4.825 4.015,5.621 1.016-2.49-1.521-6.63-4.015-5.62zm-33.323,22.89c5.767,3.065 6.614,11.051 14.453,12.044-1.945-5.401-7.509-8.421-10.622-13.027-3.685-5.453-1.1-13.243-8.248-17.084 1.006,4.9 6.193,9.05 4.417,18.07m-11.242,9.23c8.412-4.725.862-9.307-2.007-5.219 1.99.017 4.326-.312 4.818,1.205-2.725,2.36-7.059,3.112-8.431,6.825 1.772.38 3.571-1.65 5.62-2.8"  fill-rule="evenodd"/>
 <path d="m108,10.153c.213-.323.419-.652.402-1.205 1.923.503 1.521,2.034 4.015,1.205-1.08,1.243-2.46.483-4.42,0" fill="rgba(255,255,255,.6)" fill-rule="evenodd"/>
 <!--<path fill="rgba(255,255,255,1)" d="m199.94,104.9c.357-1.081 1.121.695.803,1.606 .711-.092 2.01.404 1.606-.803 .871-.068.182,1.424.401,2.007-1.195-.143-2.037-.64-2.811-1.204-.55-.93 1.03-1.52 0-1.62" fill-rule="evenodd"/>-->
 <path fill="rgba(255,255,255,.4)" d="m229.25,164.72c1.273-1.116 2.075,1.654 4.015,1.205-1.987-2.964-6.137-3.767-8.833-6.022 6.388,1.242 12.539,6.196 18.87,8.833 .624-.651-1.444-2.016-2.409-2.409 3.036-.488 6.434,2.127 10.037,2.409-6.561-4.146-15.453-5.96-21.68-10.439 .175-.494.514-.824 1.205-.803-2.178-2.104-6.175-2.39-8.833-4.015 .617-1.201 1.784-.417 2.811,0 1.367-.272-1.769-1.334-.401-1.606 4.115.97 7.981,2.19 12.044,3.211-.346-2.464-3.68-1.941-4.818-3.613 3.554-.739 8.11.987 11.242,2.008-.663-2.419-7.066-2.567-10.037-4.015 5.639-1.053 12.328-1.055 18.87-1.205 15.408,19.255 31.379,40.084 33.323,71.464h-246.91c6.738-5.779 18.248-5.476 26.498-4.818 8.771-1.377 21.013-3.638 29.71-8.03 9.509,1.014 11.273,11.03 23.068,7.585 4.643-1.355 18.049-6.738 18.686-12.403 5.084-.307 19.195.035 15.702-9.184-2.856-7.536-15.617-7.348-21.724-10.489 1.297-5.602 4.584-10.185 11.643-8.833-.74-1.535-2.396-2.154-3.212-3.614-3.956,3.138-7.825,6.361-10.037,11.242-4.221-1.132-7.153-3.553-9.635-6.424 3.84-4.552 11.853-6.752 11.241-14.453-7.86-1.241-16.494,3.534-26.096,3.212-1.635-6.466-5.44-13.068-12.517-12.871-8.581.239-3.351-13.746-4.346-20.051 23.809-15.482 54.77-29.515 95.152-24.491 .518,2.828 2.21,4.481 2.007,8.03-1.331.69-1.742-.242-2.409-1.205-.941.531-1.214,1.73-2.409,2.007-1.646-3.172-4.271-5.364-6.424-8.029-.812,2.675 2.42,4.9 1.205,7.227-1.542-.197-1.443-2.037-3.212-2.007 .062,1.458 1.629,4.422 2.007,6.022-.711.092-2.011-.404-1.606.803-1.508-.633-2.383-1.899-4.015-2.409 .288,6.135 5.354,7.493 8.431,10.84 1.972-1.106 3.982-2.174 6.825-2.409 1.863,1.861.223,5.375-1.205,6.424 .497,1.913 2.241,2.577 3.613,3.613 .325-.076.4-.402.803-.401 1.564-.404.062-1.382.401-2.81 2.031,1.493 2.102-1.546 4.417-.402 .429-1.5-.997-1.144-.803-2.409 1.199.063 3.14,2.124 2.811-.803 .678.661.498,2.179 1.204,2.811 1.065-1.612 1.765-3.588 2.811-5.219 .252,1.22-.514,3.458.401,4.015 1.735-1.61 2.168-4.523 3.212-6.825 1.336,1.755-.766,3.503-.803,5.219 .356.963 1.222-.873 1.205-1.605 .894.168.314,2.13 0,2.409 .57.035 1.137.066 1.204-.401 1.121.762-.074,2.57-.401,3.212 1.005.068 1.257-.617 1.606-1.205 .247,1.809.172,1.409 2.409.803-.187,1.419-1.8,1.412-1.606,3.212 .516.747 2.057-.861 2.409-1.606 .989,1.278-1.968,2.032-2.007,3.614 .649,1.226 1.932-1.335 2.81,0-.088,1.785-2.529,1.218-3.212,2.409 .438,3.108 7.335,2.086 7.227,4.015-.873.867-3.617-.138-4.015,1.205 2.036,1.711 6.679.815 8.03,3.212h-3.613c.942,2.27 3.583,2.841 5.621,4.015-1.672.194-10.247.279-10.84,0-.19,1.261.5,1.641 1.205,2.008-.745.786-2.71-1.519-1.606,1.204-.848-.356-1.187-1.222-2.409-1.204 .165,1.708 2.046,1.701 2.007,3.613-2.117-.064-3.299,2.077-2.409,2.81-1.97.889-2.106-3.506-3.613-4.416-1.168,3.618 2.089,8.296 1.606,11.241-2.293-2.659-1.655-8.248-4.015-10.84-1.006,1.001-.76,3.255-1.204,4.818-1.344-.53.767-4.514-1.205-4.417-1.453.957-.75,4.068-2.007,5.219-1.228-1.917-.679-4.095-1.205-7.227-1.515.894-1.752,3.066-2.811,4.417-1.087-.984 1.225-1.964.803-3.614-1.002-1.486-.845,1.526-2.409.803-.164-.967.733-.873.402-2.007-.964-.28-2.65,2.157-3.614,3.212-1.002-.278.745-1.071.402-2.008-1.755-2.21-3.771,1.273-5.621,0 1.688-2.863 4.881-4.219 6.825-6.825-2.445-.106-5.407,2.709-6.423.402 .276-1.464 2.454-1.026 2.81-2.409-1.396-1.239-3.29.44-5.219,0 1.098-1.292 1.067-1.791 3.212-2.409 .06-1.254-.613-1.746-1.205-3.212 1.067-.004 2.293.151 2.811-.401 .068-.871-1.424-.182-2.007-.402-.154.469 5.349-2.716 4.818-2.81-1.07-1.606-2.66-2.694-4.015-4.015-5.452,2.311-8.878,6.646-11.241,12.044 .884,1.116 2.861-.056 4.015,0-1.465,2.015-4.062,2.897-6.825,3.614 1.434,3.123 4.717-.756 7.628,0-.571,1.169-2.378,1.102-3.614,1.606-.566,1.096 1.009,1.601-.803,2.409 .232.838 1.516-.579 2.409-.401-2.256,3.23-7.749,3.225-9.635,6.825 2.121.374 4.6-2.354 8.431-1.606-4.573,3.945-11.956,7.042-14.454,12.044 4.341-2.618 8.877-5.041 14.855-6.022-1.458,2.958-4.485,4.348-5.621,7.628 .854.302 2.899-1.638 4.015-2.409-2.844,6.391-8.802,13.145-12.848,19.672 8.346-4.017 11.907-17.753 21.279-20.476-1.594,4.963-4.894,8.222-5.219,14.454 3.327-1.761 4.943-8.706 8.03-12.044 .665,2.146-1.168,5.25-1.205,8.029 .792-.947 1.391-2.089 2.007-3.212 .585.612-.381,3.079 0,4.818 .744,1.228.602-1.769 2.007-1.204-.672.666-.319,2.357-.401,3.613 .542-.395.802-1.071 1.205-1.606 2.338,3.211-1.298,9.111.401,11.643 2.841-5.991 2.779-14.886 4.417-22.082 1.829-.491 1.575,1.101 3.212.803 .476,5.413.608,11.168 1.204,16.461 1.424-.45.28-3.468 1.205-4.417 .597.608.647,1.762.803,2.811 .724-1.819.852-4.234.803-6.825 1.595,5.364 1.521,12.396 3.613,17.264 .868-6.793-.114-13.18-.401-20.476 1.091-.001 1.88,1.688 2.409,0 .933,1.209 1.424,2.858 2.007,4.417 1.324-.232.576-1.516.402-2.409 3.567,8.611 7.726,16.631 11.241,25.293-.222-5.935-3.646-12.144-4.817-18.468 3.001,1.683 3.523,5.845 6.022,8.03-3.021-6.08-5.053-13.147-7.227-20.074 7.243,7.746 13.022,16.956 19.673,25.293-1.503-3.853-5.21-8.975-7.628-13.249 .878-.721 1.68,2.05 2.811,2.409-2.408-6.425-8.771-12.374-12.446-18.87 .85-1.333 1.166,1.205 2.409.803-.33-2.213-1.813-3.272-2.811-4.818 4.553,1.604 9.109,6.682 14.052,9.234 .563-.142.035-.707-.401-.803 6.15,1.613 11.39,7.613 18.067,10.037-3.518-4.513-12.148-7.391-15.658-13.249 3.772,1.715 6.56,4.414 10.438,6.022-5.918-5.591-14.159-8.86-19.271-15.256 6.955,2.948 12.116,7.69 19.271,10.438-.87-2.33-5.65-4.24-8.45-5.99m-69.06-43.76c1.424,2.962 3.981,1.99 4.416,4.015-2.533-.835-2.867.92-4.818,0-.234,1.573 1.652,1.025 2.008,2.008-1.129.928-3.098.125-4.417,0 2.201,3.019 8.957,1.482 11.242,4.416-3.435,1.359-7.914.539-12.045.402 5.116,2.632 16.801,4.359 17.264-3.212-4.67-2.5-7.93-8.61-13.65-7.64m-7.63,6.02c-.705-2.106-3.741-1.88-6.424-2.008 1.54,1.27 3.74,1.89 6.42,2.01zm39.35,9.24c-.47-.601-.5-1.642-1.205-2.007 .605,2.345-1.005,2.474-1.606,3.613 .596,1.422 3.03,3.111 2.409,4.417-.968-.13-2.132-2.114-3.212-.803 .534.984-.892,1.818.402,3.212-.84.499-1.509,1.168-2.008,2.007 .583.22 2.075-.469 2.008.402-.539.264-.748.858-.803,1.606 1.175-.105 1.233.908 2.409.803 .628-.576.316-2.093 1.606-2.007-.82,1.859.694,1.228 0,3.212 1.42.216 1.759-.649 2.409-1.205 .708.363.664,1.478 1.606,1.606 .557-.247.061-1.545.803-1.606 .225.578.626.98 1.205,1.205 .24-.715-1.177-1.667 0-2.007 .292.912 1.208,1.201 2.007,1.606 .083-1.688-1.525-1.687-1.606-3.212 .765.172 1.009.865 2.008.803 .232-3.191.798-4.803 1.204-8.03-1.028-.435-1.914,1.22-2.409,0 .673-2.003 2.27-3.083 2.409-5.621-1.353,1.879-4.253,2.479-4.416.401 .215,1.42-.341,2.068-1.205,2.409-.792-.279.099-2.24-.803-2.409-.605.732-.426,2.25-1.204,2.811 .03-1.77-.029-3.451-1.205-4.015 .03,1.25-.19,2.24-.81,2.82m-51.79,25.69c.16-1.092-1.884-3.372-1.205-2.409-.22,1.42.33,2.07 1.2,2.41zm-6.43,2.41c1.344,1.199 2.945,2.141 4.818,2.811 .602-.871 2.009-.936 2.007-2.409-1.23-4.52-5.8-6.31-6.83-.4" fill-rule="evenodd"/>
 <path d="m138.91,159.5c-.679-.962 1.365,1.317 1.205,2.409-.87-.34-1.42-.99-1.21-2.41z" fill="rgba(255,255,255,.6)" fill-rule="evenodd"/>
</svg>
